<?xml version="1.0" encoding="UTF-8"?>
<svg width="26px" height="22px" viewBox="0 0 26 22" version="1.1" xmlns="http://www.w3.org/2000/svg" xmlns:xlink="http://www.w3.org/1999/xlink">
    <!-- Generator: Sketch 42 (36781) - http://www.bohemiancoding.com/sketch -->
    <title>check</title>
    <desc>Created with Sketch.</desc>
    <defs></defs>
    <g id="Page-1" stroke="none" stroke-width="1" fill="none" fill-rule="evenodd">
        <path d="M22.0132291,12.53125 L22.0132291,17.5 C22.0132291,19.984375 19.9963921,22 17.5105232,22 L4.50270595,22 C2.01683704,22 0,19.984375 0,17.5 L0,4.5 C0,2.015625 2.01683704,0 4.50270595,0 L17.5105232,0 C18.135899,0 18.7612748,0.125 19.3397474,0.390625 C19.480457,0.453125 19.5898978,0.59375 19.6211666,0.75 C19.6524354,0.921875 19.6055322,1.078125 19.480457,1.203125 L18.7143716,1.96875 C18.6205652,2.0625 18.4798557,2.125 18.3547805,2.125 C18.3078773,2.125 18.2609741,2.109375 18.214071,2.09375 C17.979555,2.03125 17.7450391,2 17.5105232,2 L4.50270595,2 C3.12687913,2 2.00120265,3.125 2.00120265,4.5 L2.00120265,17.5 C2.00120265,18.875 3.12687913,20 4.50270595,20 L17.5105232,20 C18.88635,20 20.0120265,18.875 20.0120265,17.5 L20.0120265,13.53125 C20.0120265,13.40625 20.0589296,13.28125 20.152736,13.1875 L21.1533373,12.1875 C21.2627781,12.078125 21.3878533,12.03125 21.5129284,12.03125 C21.575466,12.03125 21.6380036,12.046875 21.7005412,12.078125 C21.8881539,12.15625 22.0132291,12.328125 22.0132291,12.53125 Z M25.6247745,4.890625 L12.8983764,17.609375 C12.3980758,18.109375 11.616356,18.109375 11.1160553,17.609375 L4.39326518,10.890625 C3.89296452,10.390625 3.89296452,9.609375 4.39326518,9.109375 L6.11304871,7.390625 C6.61334937,6.890625 7.39506915,6.890625 7.89536981,7.390625 L12.0072159,11.5 L22.1226699,1.390625 C22.6229705,0.890625 23.4046903,0.890625 23.904991,1.390625 L25.6247745,3.109375 C26.1250752,3.609375 26.1250752,4.390625 25.6247745,4.890625 Z" id="check" fill="#222222"></path>
    </g>
</svg>