<?xml version="1.0" encoding="UTF-8"?>
<svg width="188px" height="61px" viewBox="0 0 188 61" version="1.1" xmlns="http://www.w3.org/2000/svg" xmlns:xlink="http://www.w3.org/1999/xlink">
    <!-- Generator: Sketch 42 (36781) - http://www.bohemiancoding.com/sketch -->
    <title>IRS-horizontal</title>
    <desc>Created with Sketch.</desc>
    <defs></defs>
    <g id="Page-1" stroke="none" stroke-width="1" fill="none" fill-rule="evenodd">
        <g id="Artboard" transform="translate(-15.000000, -15.000000)" fill="#FFFFFF">
            <g id="IRS-horizontal" transform="translate(15.000000, 15.000000)">
                <g id="IRS" transform="translate(77.000000, 2.000000)">
                    <path d="M0,53.429 C3.265,53.271 5.442,52.797 6.375,52.008 C7.308,51.218 7.775,49.323 7.775,46.165 L7.775,9.843 C7.775,6.843 7.308,4.79 6.375,4 C5.442,3.211 3.265,2.579 0,2.421 L0,1 L23.791,1 L23.791,2.421 C20.525,2.579 18.504,3.211 17.415,4 C16.482,4.79 16.016,6.843 16.016,9.843 L16.016,46.165 C16.016,49.323 16.482,51.218 17.415,52.008 C18.504,52.797 20.525,53.271 23.791,53.429 L23.791,55.008 L0,55.008 L0,53.429" id="Fill-3"></path>
                    <path d="M26,53.429 C29.11,53.113 30.976,52.481 31.753,51.692 C32.53,50.744 32.997,48.533 32.997,45.059 L32.997,9.843 C32.997,6.843 32.53,5.106 31.597,4.158 C30.82,3.211 28.954,2.737 26,2.421 L26,1 L48.235,1 C52.9,1 56.788,1.474 59.898,2.737 C65.651,4.948 68.605,9.212 68.605,15.213 C68.605,19.318 67.362,22.319 64.718,24.53 C62.075,26.741 58.654,28.162 54.145,28.952 L70.627,49.639 C71.716,50.902 72.804,51.692 73.737,52.324 C74.826,52.955 76.069,53.271 77.624,53.429 L77.624,55.008 L64.718,55.008 L45.592,29.899 L41.083,30.057 L41.083,46.165 C41.083,49.165 41.549,51.06 42.482,51.85 C43.415,52.639 45.281,53.271 48.391,53.429 L48.391,55.008 L26,55.008 L26,53.429 L26,53.429 Z M53.522,25.161 C51.034,26.109 46.836,26.741 41.083,27.056 L41.083,6.843 C41.083,5.579 41.394,4.948 41.86,4.632 C42.327,4.158 43.726,4 46.059,4 C49.48,4 52.123,4.474 54.145,5.421 C58.032,7.159 59.898,10.475 59.898,15.055 C59.898,20.108 57.721,23.424 53.522,25.161 L53.522,25.161 Z" id="Fill-4"></path>
                    <path d="M75.866,38.848 C77.11,42.48 78.82,45.322 80.531,47.533 C83.796,51.323 87.684,53.218 92.504,53.218 C94.992,53.218 97.324,52.429 99.035,50.849 C101.056,49.112 101.989,46.901 101.989,43.901 C101.989,41.216 101.056,38.848 99.035,36.953 C97.946,35.689 95.303,33.794 91.26,31.267 L84.418,27.004 C82.397,25.582 80.686,24.319 79.598,22.898 C77.265,20.371 76.177,17.528 76.177,14.37 C76.177,10.264 77.421,6.948 80.22,4.105 C82.863,1.421 86.44,0 90.949,0 C92.66,0 94.836,0.473 97.48,1.421 C100.123,2.368 101.523,2.842 101.834,2.842 C102.922,2.842 103.544,2.526 104.011,2.052 C104.322,1.579 104.633,0.947 104.788,0 L106.499,0 L108.209,17.371 L106.343,17.371 C105.099,12.159 102.922,8.527 99.968,6.474 C97.169,4.421 94.214,3.316 91.415,3.316 C89.238,3.316 87.373,3.947 85.662,5.369 C84.107,6.632 83.33,8.527 83.33,10.738 C83.33,12.949 83.952,14.686 85.196,16.107 C86.44,17.686 88.306,19.266 90.949,21.003 L98.102,25.266 C102.456,28.109 105.566,30.636 107.432,33.005 C109.142,35.373 110.075,38.058 110.075,41.216 C110.075,45.48 108.52,49.112 105.255,51.955 C102.145,54.797 98.102,56.219 93.126,56.219 C90.638,56.219 87.995,55.745 85.351,54.797 C82.552,53.85 80.997,53.376 80.686,53.376 C79.753,53.376 79.131,53.692 78.82,54.324 C78.509,54.797 78.198,55.429 78.198,56.219 L76.332,56.219 L74,38.848 L75.866,38.848" id="Fill-5"></path>
                </g>
                <path d="M44.477,1 C55.984,3.369 63.914,7.159 64.692,8.423 C65.625,10.002 66.091,11.897 67.025,19.161 C67.335,22.161 67.957,29.899 67.646,36.216 C67.491,42.375 67.18,49.165 66.402,51.06 C66.091,51.692 63.448,54.377 61.738,54.851 C61.582,55.166 63.137,48.692 63.603,37.006 C64.07,25.794 63.137,18.529 62.671,15.371 C62.36,13.318 61.738,11.897 61.271,10.633 C60.649,9.686 51.475,6.212 46.032,5.106 C44.477,7.001 44.167,7.633 43.856,8.264 C43.545,9.212 48.209,14.581 48.52,15.055 C49.142,13.318 47.898,9.212 47.276,8.738 C48.054,8.423 50.853,8.106 51.319,8.738 C51.319,8.896 52.408,9.528 52.874,14.897 C56.14,14.739 55.829,15.687 56.451,16.161 C56.762,14.897 57.073,12.844 55.984,11.739 C59.094,11.581 59.716,11.581 60.338,12.844 C60.649,13.634 60.96,16.161 59.561,19.95 C63.137,21.845 62.515,21.845 62.515,26.583 C62.515,29.741 62.36,33.689 61.738,37.479 C61.271,40.322 60.96,43.007 60.493,45.849 C59.25,52.324 57.539,56.588 57.384,56.904 C57.228,57.219 55.362,57.851 53.03,58.641 C53.03,57.219 54.585,53.429 56.14,44.586 C56.917,39.69 57.85,34.953 57.85,32.742 C58.472,25.32 58.628,25.004 58.161,21.056 C58.006,20.108 57.384,19.793 56.451,19.477 C56.451,19.477 55.984,21.372 55.518,22.319 C55.207,23.267 54.429,24.53 54.429,24.53 C55.829,25.162 56.762,26.267 56.762,27.215 C56.762,31.321 54.74,41.743 53.496,45.849 C52.563,48.692 51.63,51.218 51.319,51.692 C51.008,51.85 49.764,52.324 47.587,52.798 C48.054,49.955 50.075,45.375 52.563,30.215 C53.03,27.215 53.807,24.372 51.63,23.583 C51.475,26.267 48.831,37.321 47.121,41.112 C46.81,40.954 43.856,39.848 43.7,39.69 C43.545,39.532 39.968,26.899 38.102,17.582 C36.236,17.424 32.038,16.792 31.727,18.529 L34.992,18.529 C34.526,18.845 34.215,19.161 33.904,19.635 C35.148,19.793 35.925,21.53 36.547,23.899 L32.349,24.056 C32.66,24.056 32.971,24.372 33.126,25.162 L33.126,38.427 L41.523,38.427 L48.676,58.009 C45.41,59.746 41.834,60.852 39.657,60.852 C37.48,60.852 32.038,58.009 31.416,58.009 C30.638,58.009 25.196,60.852 23.019,60.852 C20.842,60.852 17.266,59.588 14,58.009 L21.153,38.427 L29.55,38.427 L29.55,24.53 C29.394,24.214 29.394,24.056 28.928,23.899 C27.995,23.899 25.196,23.74 24.729,24.846 C24.107,23.425 23.175,20.582 23.952,19.161 C24.263,18.529 25.818,17.582 29.083,17.582 C29.861,13.95 34.681,14.265 41.679,14.897 C41.679,14.897 41.523,15.213 41.679,15.845 C42.922,22.477 45.721,32.742 45.721,32.9 C46.81,28.004 48.365,22.635 47.432,20.424 C46.965,19.161 46.032,18.371 42.922,14.265 C41.212,12.055 39.502,9.844 39.657,9.054 C39.812,8.264 39.812,6.212 44.477,1 Z M23.198,44 L19,56.318 C19,56.318 21.487,56.634 23.198,56.634 C24.753,56.634 27.085,56.318 27.085,56.318 L23.198,44 Z M39.887,44 L36,56.318 C36,56.318 38.488,56.634 39.887,56.634 C41.598,56.634 44.086,56.318 44.086,56.318 L39.887,44 Z M29.577,42 L26,42 L31.287,57.318 L36.73,42 L33.153,42 L33.153,46.738 L30.354,45.948 C30.354,45.948 30.199,45.948 29.732,45.632 C29.577,45.632 29.577,45.316 29.577,45.316 L29.577,42 Z M28.5741563,20.0591264 C27.1751563,20.2171264 26.7081563,20.5331264 27.1751563,22.1121264 L33.3951563,22.1121264 C33.2391563,19.9021264 31.0621563,19.9021264 28.5741563,20.0591264 Z M51.332,15.0172674 C50.399,15.1752674 49.777,15.1752674 49,15.4912674 C50.399,17.2282674 51.021,18.4912674 51.954,20.3862674 C52.576,18.8072674 53.509,14.7012674 51.332,15.0172674 Z M28.0136336,1.26914233 C31.7456336,-0.151857669 35.6336336,0.00514233056 36.7216336,0.00514233056 C35.9446336,2.37414233 32.8346336,6.95414233 29.5686336,8.53314233 C27.8586336,9.48114233 24.2816336,10.1121423 22.1046336,10.7441423 C19.6176336,11.5341423 15.5746336,12.7971423 12.6196336,15.1661423 C10.5986336,16.7451423 9.66563355,18.9561423 9.82063355,22.1141423 C11.6866336,20.0611423 15.5746336,17.6931423 18.6836336,16.5871423 C17.9066336,19.4301423 18.0626336,21.7981423 16.9736336,24.4831423 C16.3516336,26.2201423 11.6866336,30.1681423 10.4426336,32.3791423 C9.50963355,33.8001423 8.88763355,36.3271423 9.35463355,38.5381423 C9.35463355,38.5381423 10.4426336,36.9581423 11.3756336,36.0111423 C13.2416336,33.9581423 17.1296336,31.2741423 17.1296336,31.2741423 C17.1296336,32.6951423 16.5066336,39.0121423 15.8856336,41.5381423 C15.2636336,43.7491423 11.3756336,47.6971423 10.2876336,48.9601423 C10.2876336,48.9601423 11.3756336,51.9611423 11.9976336,53.8561423 C12.6196336,55.5931423 12.9306336,56.8561423 12.9306336,56.8561423 C11.5316336,56.3831423 5.31163355,53.6981423 3.44563355,51.8031423 C1.11263355,49.4341423 0.957633552,46.9081423 0.646633552,44.2231423 C0.490633552,43.2751423 -0.130366448,37.9061423 0.0246335519,36.8011423 C0.179633552,36.8011423 3.44563355,39.1691423 5.00063355,41.0641423 C6.86663355,43.1171423 8.26563355,45.1701423 8.26563355,45.1701423 C8.11063355,44.2231423 7.95463355,43.5911423 7.79963355,42.9591423 C7.64363355,41.2221423 8.73263355,39.9591423 8.57663355,39.6431423 C8.57663355,39.6431423 8.42163355,39.3271423 7.95463355,38.3801423 C7.02163355,36.3271423 2.51263355,33.1691423 1.26863355,31.1151423 C0.801633552,30.3261423 -0.441366448,28.2731423 0.335633552,18.6401423 C0.335633552,18.6401423 3.91163355,22.4301423 5.77763355,24.7991423 C7.02163355,26.3781423 8.26563355,28.9051423 8.26563355,28.9051423 C7.79963355,25.4311423 9.19863355,23.6931423 9.04363355,23.6931423 C9.04363355,23.6931423 8.88763355,22.4301423 8.26563355,21.4821423 C6.55563355,18.4821423 2.66763355,16.9031423 2.04663355,13.2711423 C1.57963355,10.5861423 2.82363355,8.37514233 9.04363355,5.84914233 C10.2876336,10.1121423 9.50963355,13.9021423 9.35463355,17.3771423 C12.4646336,14.8501423 11.9976336,8.21714233 13.5526336,5.84914233 C14.0196336,4.90114233 14.7966336,3.95414233 16.9736336,3.00614233 C19.1506336,2.21614233 20.3946336,1.58514233 22.4166336,1.26914233 C22.4166336,1.58514233 21.3276336,5.53314233 20.3946336,7.58614233 C19.3056336,9.95514233 17.7516336,10.9021423 17.7516336,11.0601423 C20.0836336,10.4281423 21.9496336,9.32314233 23.5046336,6.95414233 C24.1266336,6.16414233 24.7486336,5.21714233 25.3706336,4.26914233 C25.9926336,3.16414233 26.6146336,1.90114233 28.0136336,1.26914233 Z" id="Combined-Shape"></path>
            </g>
        </g>
    </g>
</svg>