<?xml version="1.0" encoding="UTF-8"?>
<svg width="27px" height="22px" viewBox="0 0 27 22" version="1.1" xmlns="http://www.w3.org/2000/svg" xmlns:xlink="http://www.w3.org/1999/xlink">
    <!-- Generator: Sketch 42 (36781) - http://www.bohemiancoding.com/sketch -->
    <title>Group</title>
    <desc>Created with Sketch.</desc>
    <defs></defs>
    <g id="Page-1" stroke="none" stroke-width="1" fill="none" fill-rule="evenodd">
        <g id="Group" transform="translate(-1.000000, -4.000000)">
            <rect id="Rectangle-2" x="0" y="0" width="28" height="28"></rect>
            <path d="M11.714298,23.821452 C11.714298,23.202032 11.061396,23.285737 10.642869,23.285737 L5.821434,23.285737 C4.348218,23.285737 3.14286,22.080379 3.14286,20.607163 L3.14286,8.821434 C3.14286,7.348218 4.348218,6.14286 5.821434,6.14286 L11.178584,6.14286 C11.931933,6.14286 11.714298,5.004466 11.714298,4.535715 C11.714298,4.251116 11.463182,4 11.178584,4 L5.821434,4 C3.159601,4 1,6.159601 1,8.821434 L1,20.607163 C1,23.268996 3.159601,25.428597 5.821434,25.428597 L11.178584,25.428597 C11.931933,25.428597 11.714298,24.290203 11.714298,23.821452 Z M27.250031,14.714299 C27.250031,14.4297 27.132844,14.161843 26.931951,13.960949 L17.824797,4.853796 C17.623904,4.652903 17.356046,4.535715 17.071448,4.535715 C16.48551,4.535715 16.000018,5.021207 16.000018,5.607145 L16.000018,10.428579 L8.500009,10.428579 C7.914071,10.428579 7.428579,10.914071 7.428579,11.500009 L7.428579,17.928588 C7.428579,18.514526 7.914071,19.000018 8.500009,19.000018 L16.000018,19.000018 L16.000018,23.821452 C16.000018,24.40739 16.48551,24.892882 17.071448,24.892882 C17.356046,24.892882 17.623904,24.775694 17.824797,24.574801 L26.931951,15.467648 C27.132844,15.266755 27.250031,14.998897 27.250031,14.714299 Z" id="Shape" fill="#FFFFFF" fill-rule="nonzero"></path>
        </g>
    </g>
</svg>