<?xml version="1.0" encoding="UTF-8"?>
<svg width="192px" height="192px" viewBox="0 0 192 192" version="1.1" xmlns="http://www.w3.org/2000/svg" xmlns:xlink="http://www.w3.org/1999/xlink">
    <!-- Generator: Sketch 42 (36781) - http://www.bohemiancoding.com/sketch -->
    <title>us-flag</title>
    <desc>Created with Sketch.</desc>
    <defs></defs>
    <g id="Page-1" stroke="none" stroke-width="1" fill="none" fill-rule="evenodd">
        <g id="us-flag">
            <rect id="Rectangle-2-Copy-10" fill="#DB3F20" x="0" y="150" width="192" height="12"></rect>
            <rect id="Rectangle" fill="#1D33B1" x="0" y="31" width="96" height="83"></rect>
            <rect id="Rectangle-2" fill="#DB3F20" x="96" y="31" width="96" height="12"></rect>
            <rect id="Rectangle-2-Copy" fill="#FFFFFF" x="96" y="43" width="96" height="12"></rect>
            <rect id="Rectangle-2-Copy-2" fill="#DB3F20" x="96" y="55" width="96" height="12"></rect>
            <rect id="Rectangle-2-Copy-3" fill="#FFFFFF" x="96" y="67" width="96" height="12"></rect>
            <rect id="Rectangle-2-Copy-4" fill="#DB3F20" x="96" y="79" width="96" height="12"></rect>
            <rect id="Rectangle-2-Copy-5" fill="#FFFFFF" x="96" y="90" width="96" height="12"></rect>
            <rect id="Rectangle-2-Copy-6" fill="#DB3F20" x="96" y="102" width="96" height="12"></rect>
            <rect id="Rectangle-2-Copy-7" fill="#FFFFFF" x="0" y="114" width="192" height="12"></rect>
            <rect id="Rectangle-2-Copy-8" fill="#DB3F20" x="0" y="126" width="192" height="12"></rect>
            <rect id="Rectangle-2-Copy-9" fill="#FFFFFF" x="0" y="138" width="192" height="12"></rect>
            <rect id="Rectangle-3" fill="#FFFFFF" x="12" y="43" width="12" height="12"></rect>
            <rect id="Rectangle-3-Copy" fill="#FFFFFF" x="24" y="67" width="12" height="12"></rect>
            <rect id="Rectangle-3-Copy-4" fill="#FFFFFF" x="12" y="90" width="12" height="12"></rect>
            <rect id="Rectangle-3" fill="#FFFFFF" x="36" y="43" width="12" height="12"></rect>
            <rect id="Rectangle-3-Copy-2" fill="#FFFFFF" x="48" y="67" width="12" height="12"></rect>
            <rect id="Rectangle-3-Copy-5" fill="#FFFFFF" x="36" y="90" width="12" height="12"></rect>
            <rect id="Rectangle-3" fill="#FFFFFF" x="60" y="43" width="12" height="12"></rect>
            <rect id="Rectangle-3-Copy-3" fill="#FFFFFF" x="72" y="67" width="12" height="12"></rect>
            <rect id="Rectangle-3-Copy-6" fill="#FFFFFF" x="60" y="90" width="12" height="12"></rect>
        </g>
    </g>
</svg>